<?xml version="1.0" encoding="iso-8859-1"?>
<!-- Generator: Adobe Illustrator 19.0.0, SVG Export Plug-In . SVG Version: 6.00 Build 0)  -->
<svg version="1.1" id="Layer_1" xmlns="http://www.w3.org/2000/svg" xmlns:xlink="http://www.w3.org/1999/xlink" x="0px" y="0px"
	 viewBox="0 0 511.999 511.999" style="enable-background:new 0 0 511.999 511.999;" xml:space="preserve">
<path style="fill:#F5F5F5;" d="M511.999,256c0,141.02-114.313,255.361-255.361,255.361C115.639,511.361,1.277,397.019,1.277,256
	c0-141.047,114.362-255.361,255.361-255.361C397.686,0.638,511.999,114.952,511.999,256z"/>
<path style="fill:#406A80;" d="M400.482,244.029c-1.416-47.88-11.638-91.77-29.191-135.66h93.657
	c-4.907-6.914-10.15-13.57-15.705-19.95h-87.537c-15.784-31.709-36.081-59.69-60.01-83.738c-11.451-2.039-23.154-3.332-35.08-3.791
	c28.8,23.549,53.067,55.88,71.597,87.529H175.071c18.581-31.74,42.933-63.972,71.836-87.533
	c-12.086,0.455-23.956,1.764-35.559,3.843c-23.828,23.992-44.046,52.089-59.775,83.695H64.053
	c-5.558,6.38-10.792,13.035-15.709,19.95h93.637c-17.548,43.89-27.767,87.78-29.191,135.66H1.581
	c-0.187,3.966-0.303,7.952-0.303,11.966s0.115,8,0.303,11.97H112.73c1.121,47.88,10.944,91.77,28.313,135.66H48.355
	c4.907,6.91,10.15,13.566,15.713,19.95h86.571c15.765,31.709,36.209,59.491,60.569,83.666c11.551,2.079,23.358,3.392,35.387,3.859
	c-29.391-23.844-53.865-55.876-72.382-87.529H339.06c-18.562,31.74-43.116,63.669-72.618,87.533
	c12.206-0.463,24.184-1.799,35.886-3.911c24.243-24.124,44.609-52.021,60.309-83.623h86.587c5.558-6.38,10.793-13.035,15.709-19.95
	h-92.712c17.373-43.89,27.192-87.78,28.325-135.66h111.149c0.187-3.97,0.303-7.956,0.303-11.97c0-4.014-0.116-8-0.303-11.97
	L400.482,244.029L400.482,244.029z M164.8,108.369h183.673c18.641,43.89,29.51,87.78,31.018,135.66H133.774
	C135.295,196.149,146.167,152.259,164.8,108.369z M349.35,403.63H163.919c-18.509-43.89-29.011-87.78-30.212-135.66h245.86
	C378.37,315.849,367.861,359.739,349.35,403.63z"/>
<path style="opacity:0.6;fill:#B3B3B3;enable-background:new    ;" d="M464.853,108.245c-2.501-3.528-5.095-6.986-7.776-10.382
	c-1.217,0.06-2.426,0.111-3.639,0.191c-30.89,2.785-60.365,11.5-88.925,21.829c-57.077,21.043-110.966,49.452-161.923,82.095
	c-25.361,16.543-50.195,33.915-74.015,52.692c-23.621,18.997-46.743,38.763-67.763,60.847c-10.522,11.02-20.804,22.34-30.081,34.582
	c-2.466,3.279-4.888,6.611-7.25,9.991c2.207,4.924,4.549,9.771,7.05,14.528c3.894-4.979,7.984-9.843,12.229-14.555
	c9.851-10.821,20.193-21.294,31.071-31.242c21.845-19.802,44.66-38.675,68.525-56.224c23.717-17.716,48.079-34.665,73.152-50.473
	c24.945-16.047,50.43-31.21,76.381-45.506c25.863-14.468,52.517-27.415,79.537-39.374c13.534-5.922,27.3-11.216,41.177-16.072
	c13.881-4.816,28.014-8.925,42.302-11.451C458.206,109.123,461.534,108.62,464.853,108.245z"/>
<path style="fill:#CC584C;" d="M53.926,434.68c-7.398,1.361-14.962,2.075-22.663,1.672c-7.597-0.554-15.781-2.198-22.504-7.789
	c-3.275-2.754-5.926-6.651-7.25-10.841c-1.385-4.205-1.696-8.579-1.416-12.74c0.583-8.371,3.18-16.064,6.249-23.325
	c6.416-14.444,15.158-27.271,24.379-39.533c9.277-12.245,19.559-23.561,30.081-34.582c21.032-22.088,44.141-41.855,67.763-60.847
	c23.821-18.777,48.65-36.149,74.015-52.692c50.957-32.642,104.842-61.051,161.919-82.095c28.56-10.326,58.035-19.04,88.925-21.829
	c7.733-0.523,15.553-0.659,23.433,0.247c7.793,0.974,15.968,2.674,22.951,7.541c3.499,2.458,6.392,5.498,8.335,9.429
	c1.883,3.802,2.589,7.98,2.474,11.946c-0.375,7.98-3.236,15.198-6.763,21.806c2.266-7.118,3.99-14.588,3.144-21.666
	c-0.395-3.503-1.468-6.823-3.316-9.54c-0.455-0.679-0.99-1.336-1.468-1.879c-0.654-0.754-1.165-1.145-1.795-1.748
	c-1.261-1.025-2.585-1.976-4.082-2.697c-5.905-2.993-13.007-3.886-20.042-3.934c-7.083-0.032-14.276,0.874-21.399,2.159
	c-14.285,2.526-28.413,6.64-42.302,11.451c-13.881,4.856-27.65,10.146-41.177,16.072c-27.016,11.959-53.67,24.906-79.537,39.374
	c-25.951,14.296-51.436,29.459-76.381,45.506c-25.077,15.808-49.436,32.758-73.152,50.473
	c-23.856,17.54-46.679,36.421-68.525,56.224c-10.885,9.948-21.219,20.421-31.071,31.242c-9.779,10.845-18.953,22.32-25.919,34.733
	c-3.468,6.165-6.396,12.661-7.565,19.204c-1.225,6.539-0.243,12.999,4.07,17.776c4.31,4.824,11.323,7.529,18.406,8.985
	C38.911,434.332,46.417,434.668,53.926,434.68z"/>
<g>
</g>
<g>
</g>
<g>
</g>
<g>
</g>
<g>
</g>
<g>
</g>
<g>
</g>
<g>
</g>
<g>
</g>
<g>
</g>
<g>
</g>
<g>
</g>
<g>
</g>
<g>
</g>
<g>
</g>
</svg>
